<svg width="75" height="60"  viewBox="0 0 75 60" fill="none" xmlns="http://www.w3.org/2000/svg">
<path d="M0 26.2369V58.1109C0 59.1604 0.83958 60 1.88906 60H11.2744V22.4888H3.77811C1.67916 22.4888 0 24.1679 0 26.2369ZM42.1589 20.5997H39.3403V15.922C39.3403 15.4123 38.9205 14.9925 38.4108 14.9925H36.5217C36.012 14.9925 35.5922 15.4123 35.5922 15.922V23.4183C35.5922 23.928 36.012 24.3478 36.5217 24.3478H42.1589C42.6687 24.3478 43.0885 23.928 43.0885 23.4183V21.5292C43.1184 21.0195 42.6987 20.5997 42.1589 20.5997ZM58.2909 13.1334L39.5502 0.629685C38.2909 -0.209895 36.6417 -0.209895 35.3823 0.629685L16.6717 13.1334C15.6222 13.8231 14.9925 14.9925 14.9925 16.2519V59.97H29.985V43.0885C29.985 42.039 30.8246 41.1994 31.8741 41.1994H43.1184C44.1679 41.1994 45.0075 42.039 45.0075 43.0885V59.97H60V16.2519C59.97 14.9925 59.3403 13.8231 58.2909 13.1334ZM37.4813 29.985C32.2939 29.985 28.096 25.7871 28.096 20.5997C28.096 15.4123 32.2939 11.2444 37.4813 11.2444C42.6687 11.2444 46.8666 15.4423 46.8666 20.5997C46.8666 25.7571 42.6687 29.985 37.4813 29.985ZM71.2144 22.4888H63.7181V59.97H73.1035C74.1529 59.97 74.9925 59.1304 74.9925 58.081V26.2369C74.9625 24.1679 73.2834 22.4888 71.2144 22.4888Z" fill="white"/>
</svg>
